# Blender v2.78 (sub 0) OBJ File: ''
# www.blender.org
o Icosphere.001
v 0.110682 -0.293127 -0.558506
v 0.283632 -0.758159 -3.451429
v 0.456581 -1.047509 -3.373898
v 0.283632 -0.003777 -0.636037
v 0.079828 -1.132007 -3.620419
v 0.456581 -0.293127 -0.558506
v 0.281288 -0.620685 -0.451069
v 0.723607 -0.227145 -0.295913
v -0.276388 -0.540998 -0.211817
v -0.894426 0.280668 -0.431977
v -0.276388 1.102330 -0.652145
v 0.723607 0.788478 -0.568049
v 0.276388 -0.309500 0.652145
v -0.723607 0.004353 0.568049
v -0.723607 1.019976 0.295913
v 0.276388 1.333828 0.211817
v 0.894426 0.512163 0.431977
v 0.000000 0.655235 0.965926
v 0.774310 0.780655 -0.739573
v -0.295755 1.116499 -0.829562
v 0.262869 -0.521101 -0.298436
v 0.850648 0.260345 -0.507822
v -0.957098 0.237263 -0.593967
v -0.295755 -0.641976 -0.358380
v -0.688189 -0.222615 -0.378413
v 0.774310 -0.306132 -0.448369
v -0.688189 0.743305 -0.637231
v 0.262869 1.041790 -0.717211
v 0.951058 0.097932 0.079978
v 0.951058 0.694899 -0.079978
v 0.000000 -0.569510 0.258819
v 0.587786 -0.385035 0.209389
v -0.951058 0.097932 0.079978
v -0.587786 -0.385035 0.209389
v -0.587786 1.177866 -0.209389
v -0.951058 0.694899 -0.079978
v 0.587786 1.177866 -0.209389
v 0.000000 1.362341 -0.258819
v 0.688189 0.049526 0.637231
v -0.262869 -0.248959 0.717211
v -0.850648 0.532486 0.507822
v -0.262869 1.313932 0.298436
v 0.688189 1.015446 0.378413
v 0.162456 0.133623 0.951077
v 0.525730 0.616580 0.821666
v -0.425323 0.318099 0.901647
v -0.425323 0.915063 0.741691
v 0.162456 1.099539 0.692261
v 0.910252 0.215516 -0.675126
v -0.736411 -0.301285 -0.536650
v -0.736411 0.732317 -0.813603
v 0.281288 1.051716 -0.899187
v 0.215337 -0.471279 -0.677710
v 0.592764 0.601499 -0.898571
v -0.226411 0.858600 -0.967461
v -0.732694 0.185512 -0.787104
v -0.226411 -0.487579 -0.606753
v 0.592764 -0.230477 -0.675643
v 0.696833 0.168864 -0.849234
v -0.563749 -0.226766 -0.743225
v -0.563749 0.564494 -0.955243
v 0.215337 0.809006 -1.020761
v -0.411402 -0.293127 -0.558506
v -0.238453 -0.758159 -3.451429
v -0.065503 -1.047509 -3.373898
v -0.238453 -0.003777 -0.636037
v -0.442257 -1.132007 -3.620419
v -0.065503 -0.293127 -0.558506
v -0.507208 0.157550 -0.679264
v -0.334259 -0.307482 -3.572188
v -0.161309 -0.596832 -3.494657
v -0.334259 0.446900 -0.756796
v -0.538062 -0.681330 -3.741178
v -0.161309 0.157550 -0.679264
v -0.145572 0.579753 -0.792393
v 0.027378 0.114722 -3.685317
v 0.200328 -0.174629 -3.607785
v 0.027378 0.869104 -0.869925
v -0.176426 -0.259126 -3.854307
v 0.200328 0.579753 -0.792393
v 0.161815 0.164169 -0.681038
v 0.334765 -0.300862 -3.573961
v 0.507714 -0.590213 -3.496430
v 0.334765 0.453520 -0.758569
v 0.130961 -0.674710 -3.742951
v 0.507714 0.164169 -0.681038
vt 0.1167 0.9995
vt 0.0584 0.5673
vt 0.1167 0.5280
vt 0.8831 0.7039
vt 0.9416 0.2717
vt 0.9416 0.7430
vt 0.2784 0.9611
vt 0.2245 0.5280
vt 0.2784 0.5281
vt 0.1956 0.7838
vt 0.1489 0.7581
vt 0.1956 0.7323
vt 0.2522 0.6331
vt 0.2522 0.6845
vt 0.1999 0.6588
vt 0.0531 0.0388
vt 0.0340 0.1163
vt 0.0000 0.1084
vt 0.3172 0.1245
vt 0.2832 0.0527
vt 0.3107 0.0528
vt 0.0139 0.1934
vt 0.0446 0.1813
vt 0.1561 0.2767
vt 0.2193 0.2247
vt 0.2420 0.2501
vt 0.2195 0.0266
vt 0.1364 0.0333
vt 0.1337 0.0000
vt 0.4851 0.2797
vt 0.4989 0.3408
vt 0.4165 0.2934
vt 0.3519 0.1987
vt 0.4063 0.1426
vt 0.0389 0.3341
vt 0.0290 0.2848
vt 0.1087 0.2890
vt 0.0421 0.4894
vt 0.0274 0.4140
vt 0.1096 0.4602
vt 0.4875 0.4191
vt 0.4989 0.4876
vt 0.4179 0.4660
vt 0.3692 0.0000
vt 0.3821 0.0569
vt 0.4326 0.2246
vt 0.1077 0.3689
vt 0.1137 0.5280
vt 0.4179 0.3753
vt 0.4622 0.0836
vt 0.4582 0.0181
vt 0.5295 0.0799
vt 0.7020 0.5242
vt 0.6178 0.5180
vt 0.6842 0.4721
vt 0.1787 0.4126
vt 0.1909 0.3352
vt 0.2442 0.4056
vt 0.7020 0.2713
vt 0.7662 0.3234
vt 0.6842 0.3234
vt 0.3473 0.3384
vt 0.3355 0.4186
vt 0.2832 0.3635
vt 0.5925 0.3518
vt 0.6589 0.3978
vt 0.6178 0.2775
vt 0.3473 0.4928
vt 0.2832 0.4542
vt 0.7409 0.3978
vt 0.1939 0.4829
vt 0.7662 0.4721
vt 0.5925 0.4437
vt 0.4974 0.1569
vt 0.5261 0.3978
vt 0.5460 0.3196
vt 0.1856 0.5280
vt 0.1804 0.2767
vt 0.5070 0.2229
vt 0.3333 0.2861
vt 0.4165 0.5309
vt 0.4851 0.5294
vt 0.4510 0.2713
vt 0.3598 0.2571
vt 0.5113 0.2713
vt 0.5261 0.3367
vt 0.0123 0.3299
vt 0.0017 0.2771
vt 0.5113 0.5385
vt 0.3273 0.2088
vt 0.2901 0.1295
vt 0.5139 0.4205
vt 0.5261 0.4938
vt 0.0853 0.2346
vt 0.1535 0.2451
vt 0.2508 0.1003
vt 0.2021 0.0536
vt 0.0158 0.4960
vt 0.0000 0.4154
vt 0.0669 0.2630
vt 0.2832 0.1736
vt 0.2508 0.1662
vt 0.2832 0.0876
vt 0.0747 0.0630
vt 0.7464 0.1329
vt 0.5402 0.1481
vt 0.6976 0.0203
vt 0.0584 0.9995
vt 0.0000 0.5673
vt 0.0584 0.5280
vt 0.9416 0.7039
vt 1.0000 0.2717
vt 1.0000 0.7430
vt 0.3371 0.9716
vt 0.2832 0.5385
vt 0.3371 0.5386
vt 0.1489 0.8095
vt 0.1956 0.7838
vt 0.1956 0.8352
vt 0.1999 0.6331
vt 0.1999 0.6845
vt 0.1476 0.6588
vt 0.7013 0.9957
vt 0.6429 0.5635
vt 0.7013 0.5242
vt 0.7662 0.7039
vt 0.8247 0.2717
vt 0.8247 0.7430
vt 0.3371 0.5385
vt 0.3910 0.9716
vt 0.3371 0.9716
vt 0.1968 0.8095
vt 0.2436 0.7838
vt 0.2436 0.8352
vt 0.2491 0.6763
vt 0.2491 0.7277
vt 0.1968 0.7020
vt 0.6429 0.9957
vt 0.5846 0.5635
vt 0.6429 0.5242
vt 0.8247 0.7039
vt 0.8831 0.2717
vt 0.8831 0.7430
vt 0.1706 0.9611
vt 0.1167 0.5280
vt 0.1706 0.5281
vt 0.2990 0.6588
vt 0.3457 0.6331
vt 0.3457 0.6845
vt 0.1968 0.7323
vt 0.1489 0.7088
vt 0.1968 0.6763
vt 0.7597 0.9957
vt 0.7013 0.5635
vt 0.7597 0.5242
vt 0.5261 0.9568
vt 0.5846 0.5246
vt 0.5846 0.9959
vt 0.2245 0.9611
vt 0.1706 0.5280
vt 0.2245 0.5281
vt 0.2990 0.6845
vt 0.2522 0.6588
vt 0.2990 0.6331
vt 0.2448 0.7838
vt 0.1968 0.7602
vt 0.2448 0.7277
vt 0.0628 1.0000
vt 0.8877 0.2713
vt 0.2245 0.9611
vt 0.3357 0.2713
vt 0.5295 0.0830
vt 0.5702 0.0297
vt 0.6319 0.0000
vt 0.7464 0.0671
vt 0.7148 0.1915
vt 0.6490 0.2118
vt 0.5808 0.2013
vt 0.0044 1.0000
vt 0.9461 0.2713
vt 0.2832 0.9716
vt 0.6473 0.9962
vt 0.7708 0.2713
vt 0.3910 0.5386
vt 0.5890 0.9962
vt 0.8292 0.2713
vt 0.1167 0.9611
vt 0.7057 0.9962
vt 0.5307 0.5242
vt 0.1706 0.9611
vn -0.8434 0.5204 -0.1341
vn 0.0437 -0.9637 0.2636
vn 0.8660 0.4830 -0.1294
vn 0.0000 0.2588 0.9659
vn 0.5308 0.0915 -0.8426
vn 0.6229 0.0609 -0.7799
vn 0.4560 -0.7192 0.5243
vn 0.4404 0.3035 -0.8449
vn -0.6572 -0.0409 -0.7526
vn 0.4404 -0.6853 -0.5799
vn 0.9050 -0.3444 -0.2498
vn 0.0247 -0.9969 -0.0749
vn -0.8897 -0.3899 -0.2376
vn -0.5746 0.6378 -0.5129
vn 0.5346 0.6658 -0.5205
vn 0.8026 -0.5958 0.0296
vn -0.3066 -0.9439 0.1229
vn -0.9921 -0.0325 -0.1213
vn -0.3066 0.8789 -0.3655
vn 0.8026 0.5307 -0.2723
vn 0.4089 -0.4358 0.8018
vn -0.4713 -0.3920 0.7901
vn -0.7002 0.4302 0.5698
vn 0.0385 0.8945 0.4454
vn 0.7240 0.3594 0.5887
vn 0.2680 0.4323 0.8610
vn 0.4911 0.5503 0.6752
vn 0.4089 0.7783 0.4765
vn -0.1024 0.5486 0.8298
vn -0.1876 0.7633 0.6182
vn -0.4713 0.7345 0.4882
vn -0.3313 0.2442 0.9114
vn -0.6071 0.2057 0.7676
vn -0.7002 -0.0876 0.7085
vn -0.1024 -0.0602 0.9929
vn -0.1876 -0.3520 0.9170
vn 0.0385 -0.5520 0.8330
vn 0.2680 0.0561 0.9618
vn 0.4911 -0.1390 0.8599
vn 0.7240 -0.0168 0.6895
vn 0.8897 0.3899 0.2376
vn 0.7947 0.6062 0.0318
vn 0.5746 0.8088 0.1253
vn -0.0247 0.9969 0.0749
vn -0.3035 0.9509 -0.0606
vn -0.5346 0.8369 0.1178
vn -0.9050 0.3444 0.2498
vn -0.9822 0.0486 0.1812
vn -0.9050 -0.1734 0.3885
vn -0.5346 -0.6658 0.5205
vn -0.3035 -0.8538 0.4230
vn -0.0247 -0.8259 0.5633
vn 0.5746 -0.6378 0.5129
vn 0.7947 -0.5091 0.3306
vn 0.8897 -0.2188 0.4007
vn 0.3066 0.9439 -0.1229
vn 0.3035 0.8538 -0.4230
vn 0.0247 0.8259 -0.5633
vn -0.8026 0.5958 -0.0296
vn -0.7947 0.5091 -0.3306
vn -0.8897 0.2188 -0.4007
vn -0.8026 -0.5307 0.2723
vn -0.7947 -0.6062 -0.0318
vn -0.5746 -0.8088 -0.1253
vn 0.3066 -0.8789 0.3655
vn 0.3035 -0.9509 0.0606
vn 0.5346 -0.8369 -0.1178
vn 0.9921 0.0325 0.1213
vn 0.9822 -0.0486 -0.1812
vn 0.9050 0.1734 -0.3885
vn 0.9306 -0.0881 0.3552
vn -0.8570 -0.3071 0.4138
vn 0.1192 0.9907 0.0661
vn 0.1192 -0.8249 0.5526
vn -0.6488 -0.5839 0.4880
vn 0.4560 0.8850 0.0944
vn 0.9306 0.2539 0.2635
vn -0.3507 0.3665 -0.8618
vn -0.0554 -0.8410 -0.5382
vn -0.8570 0.4729 0.2048
vn -0.6488 0.7496 0.1307
vn -0.0554 0.4592 -0.8866
vn -0.6572 -0.3409 -0.6723
vn -0.3507 -0.7483 -0.5631
vn 0.6229 -0.4427 -0.6450
vn -0.0000 -0.2588 -0.9659
vn -0.8660 0.4830 -0.1294
vn 0.0000 -0.9659 0.2588
vn 0.2879 -0.0399 -0.9568
vn 0.2879 -0.4439 -0.8486
vn -0.1099 -0.5687 -0.8151
vn -0.3558 -0.2419 -0.9027
vn -0.1099 0.0850 -0.9903
s off
f 1/1/1 2/2/1 5/3/1
f 3/4/2 1/5/2 5/6/2
f 4/7/3 3/8/3 2/9/3
f 4/10/4 1/11/4 6/12/4
f 2/13/5 3/14/5 5/15/5
f 49/16/6 54/17/6 19/18/6
f 21/19/7 26/20/7 8/21/7
f 52/22/8 54/17/8 62/23/8
f 51/24/9 56/25/9 23/26/9
f 7/27/10 58/28/10 26/29/10
f 8/30/11 22/31/11 29/32/11
f 9/33/12 21/19/12 31/34/12
f 10/35/13 25/36/13 33/37/13
f 11/38/14 27/39/14 35/40/14
f 12/41/15 28/42/15 37/43/15
f 8/21/16 29/44/16 32/45/16
f 9/33/17 31/34/17 34/46/17
f 10/35/18 33/37/18 36/47/18
f 11/38/19 35/40/19 38/48/19
f 12/41/20 37/43/20 30/49/20
f 13/50/21 39/51/21 44/52/21
f 14/53/22 40/54/22 46/55/22
f 15/56/23 41/57/23 47/58/23
f 16/59/24 42/60/24 48/61/24
f 17/62/25 43/63/25 45/64/25
f 45/65/26 48/61/26 18/66/26
f 45/65/27 43/67/27 48/61/27
f 43/63/28 16/68/28 48/69/28
f 48/61/29 47/70/29 18/66/29
f 48/61/30 42/60/30 47/70/30
f 42/71/31 15/56/31 47/58/31
f 47/70/32 46/55/32 18/66/32
f 47/70/33 41/72/33 46/55/33
f 41/72/34 14/53/34 46/55/34
f 46/55/35 44/73/35 18/66/35
f 46/55/36 40/54/36 44/73/36
f 40/74/37 13/50/37 44/52/37
f 44/73/38 45/65/38 18/66/38
f 44/73/39 39/75/39 45/65/39
f 39/75/40 17/76/40 45/65/40
f 30/49/41 43/63/41 17/62/41
f 30/49/42 37/43/42 43/63/42
f 37/43/43 16/68/43 43/63/43
f 38/48/44 42/71/44 16/77/44
f 38/48/45 35/40/45 42/71/45
f 35/40/46 15/56/46 42/71/46
f 36/47/47 41/57/47 15/56/47
f 36/47/48 33/37/48 41/57/48
f 33/37/49 14/78/49 41/57/49
f 34/46/50 40/74/50 14/79/50
f 34/46/51 31/34/51 40/74/51
f 31/34/52 13/50/52 40/74/52
f 32/45/53 39/51/53 13/50/53
f 32/45/54 29/44/54 39/51/54
f 29/32/55 17/62/55 39/80/55
f 37/43/56 38/81/56 16/68/56
f 37/43/57 28/42/57 38/81/57
f 28/42/58 11/82/58 38/81/58
f 35/40/59 36/47/59 15/56/59
f 35/40/60 27/39/60 36/47/60
f 27/39/61 10/35/61 36/47/61
f 33/83/62 34/46/62 14/79/62
f 33/83/63 25/84/63 34/46/63
f 25/84/64 9/33/64 34/46/64
f 31/34/65 32/45/65 13/50/65
f 31/34/66 21/19/66 32/45/66
f 21/19/67 8/21/67 32/45/67
f 29/32/68 30/49/68 17/62/68
f 29/32/69 22/31/69 30/49/69
f 22/31/70 12/41/70 30/49/70
f 22/31/71 26/85/71 49/86/71
f 25/36/72 23/87/72 50/88/72
f 28/42/73 20/89/73 11/82/73
f 21/19/74 24/90/74 7/91/74
f 25/84/75 24/90/75 9/33/75
f 28/42/76 19/92/76 52/93/76
f 22/31/77 19/92/77 12/41/77
f 51/24/78 55/94/78 61/95/78
f 7/27/79 57/96/79 53/97/79
f 27/39/80 23/87/80 10/35/80
f 27/39/81 20/98/81 51/99/81
f 52/22/82 55/94/82 20/100/82
f 50/101/83 56/25/83 60/102/83
f 50/101/84 57/96/84 24/103/84
f 49/16/85 58/28/85 59/104/85
f 60/105/86 62/106/86 53/107/86
f 63/108/1 64/109/1 67/110/1
f 65/111/2 63/112/2 67/113/2
f 66/114/3 65/115/3 64/116/3
f 66/117/4 63/118/4 68/119/4
f 64/120/5 65/121/5 67/122/5
f 69/123/1 70/124/1 73/125/1
f 71/126/2 69/127/2 73/128/2
f 72/129/3 71/130/3 70/131/3
f 72/132/4 69/133/4 74/134/4
f 70/135/5 71/136/5 73/137/5
f 75/138/1 76/139/1 79/140/1
f 77/141/2 75/142/2 79/143/2
f 78/144/3 77/145/3 76/146/3
f 78/147/4 75/148/4 80/149/4
f 76/150/5 77/151/5 79/152/5
f 81/153/1 82/154/1 85/155/1
f 83/156/2 81/157/2 85/158/2
f 84/159/3 83/160/3 82/161/3
f 84/162/4 81/163/4 86/164/4
f 82/165/5 83/166/5 85/167/5
f 1/1/87 4/168/87 2/2/87
f 3/4/88 6/169/88 1/5/88
f 4/7/3 6/170/3 3/8/3
f 49/16/6 59/104/6 54/17/6
f 21/19/7 7/91/7 26/20/7
f 52/22/8 19/18/8 54/17/8
f 51/24/9 61/95/9 56/25/9
f 7/27/10 53/97/10 58/28/10
f 22/31/71 8/30/71 26/85/71
f 25/36/72 10/35/72 23/87/72
f 28/42/73 52/93/73 20/89/73
f 21/19/74 9/33/74 24/90/74
f 25/84/75 50/171/75 24/90/75
f 28/42/76 12/41/76 19/92/76
f 22/31/77 49/86/77 19/92/77
f 51/24/78 20/100/78 55/94/78
f 7/27/79 24/103/79 57/96/79
f 27/39/80 51/99/80 23/87/80
f 27/39/81 11/38/81 20/98/81
f 52/22/82 62/23/82 55/94/82
f 50/101/83 23/26/83 56/25/83
f 50/101/84 60/102/84 57/96/84
f 49/16/85 26/29/85 58/28/85
f 54/172/89 59/173/89 62/106/89
f 58/174/90 53/107/90 59/173/90
f 57/175/91 60/105/91 53/107/91
f 56/176/92 61/177/92 60/105/92
f 55/178/93 62/106/93 61/177/93
f 59/173/86 53/107/86 62/106/86
f 60/105/86 61/177/86 62/106/86
f 63/108/87 66/179/87 64/109/87
f 65/111/88 68/180/88 63/112/88
f 66/114/3 68/181/3 65/115/3
f 69/123/87 72/182/87 70/124/87
f 71/126/88 74/183/88 69/127/88
f 72/129/3 74/184/3 71/130/3
f 75/138/87 78/185/87 76/139/87
f 77/141/88 80/186/88 75/142/88
f 78/144/3 80/187/3 77/145/3
f 81/153/87 84/188/87 82/154/87
f 83/156/88 86/189/88 81/157/88
f 84/159/3 86/190/3 83/160/3
