# Blender v2.78 (sub 0) OBJ File: ''
# www.blender.org
o Icosphere.001
v 0.000000 -1.215844 -0.000000
v -0.639194 -0.543744 1.078303
v -1.034246 -0.543744 -0.411867
v 0.639194 -0.543744 1.078303
v 1.034246 -0.543744 -0.411867
v -1.034246 0.543744 0.411867
v 0.956591 0.723745 -1.036168
v 1.034246 0.543744 0.411867
v -0.956591 0.723745 -1.036168
v 0.000000 1.215844 0.000000
v 0.000000 0.812072 -1.506211
v 0.000000 -1.215844 -0.000000
v -0.639194 -0.543744 1.078303
v -1.034246 -0.543744 -0.411867
v 0.639194 -0.543744 1.078303
v 1.034246 -0.543744 -0.411867
v -1.034246 0.543744 0.411867
v 0.956591 0.723745 -1.036168
v 1.034246 0.543744 0.411867
v -0.956591 0.723745 -1.036168
v 0.000000 1.215844 0.000000
v 0.000000 0.812072 -1.506211
v -0.766157 0.600877 -0.855626
v -0.000000 0.995011 -0.025734
v 0.511946 -0.414286 0.837905
v 0.828353 0.456710 0.304141
v 0.828353 -0.414286 -0.355609
v -0.828353 0.456710 0.304141
v -0.511946 -0.414286 0.837905
v 0.766157 0.600877 -0.855626
v -0.000000 0.671621 -1.232095
v -0.000000 -0.952587 -0.025734
v -0.828353 -0.414286 -0.355609
vt 0.1379 0.2132
vt 0.1785 0.2347
vt 0.1261 0.2623
vt 0.1785 0.1918
vt 0.1261 0.1641
vt 0.1963 0.3108
vt 0.1964 0.1157
vt 0.0847 0.3386
vt 0.0847 0.0878
vt 0.2845 0.0874
vt 0.3706 0.0874
vt 0.3368 0.1492
vt 0.2523 0.1435
vt 0.2767 0.2033
vt 0.3620 0.2150
vt 0.1379 0.2132
vt 0.1261 0.2623
vt 0.1785 0.2347
vt 0.1785 0.1918
vt 0.1261 0.1641
vt 0.1963 0.3108
vt 0.1964 0.1157
vt 0.0847 0.3386
vt 0.0847 0.0878
vt 0.2845 0.0874
vt 0.3368 0.1492
vt 0.3706 0.0874
vt 0.2523 0.1435
vt 0.2767 0.2033
vt 0.3620 0.2150
vt 0.1379 0.2132
vt 0.1785 0.2347
vt 0.1261 0.2623
vt 0.1785 0.1918
vt 0.1261 0.1641
vt 0.1963 0.3108
vt 0.1964 0.1157
vt 0.0847 0.3386
vt 0.0847 0.0878
vt 0.2845 0.0874
vt 0.3706 0.0874
vt 0.3368 0.1492
vt 0.2523 0.1435
vt 0.2767 0.2033
vt 0.3620 0.2150
vn 0.0000 -0.9529 0.3033
vn -0.5718 -0.7264 0.3813
vn -0.9304 -0.3455 0.1227
vn 0.5718 -0.7264 0.3813
vn 0.9304 -0.3455 0.1227
vn -0.9570 0.2653 0.1176
vn 0.9570 0.2653 0.1176
vn -0.6480 0.7533 -0.1121
vn 0.6480 0.7533 -0.1121
vn 0.0000 0.9982 -0.0597
vn 0.0000 0.9659 -0.2589
vn 0.0000 0.9437 0.3308
vn 0.6136 0.5509 0.5656
vn 0.4176 0.1467 -0.8967
vn -0.4176 0.1467 -0.8967
vn -0.6136 0.5509 0.5656
vn 0.5854 -0.4776 -0.6551
vn -0.5854 -0.4776 -0.6551
vn 0.6659 -0.2257 0.7111
vn -0.6659 -0.2257 0.7111
vn 0.0000 -0.8639 -0.5036
vn 0.0000 -0.1208 0.9927
vn 0.0000 -0.4258 0.9048
vn -0.4702 -0.8516 -0.2319
vn -0.7384 0.0078 0.6744
vn 0.4702 -0.8516 -0.2319
vn 0.7384 0.0078 0.6744
vn -0.8632 -0.0131 -0.5047
vn 0.8632 -0.0131 -0.5047
vn -0.4435 0.8019 0.4004
vn 0.4435 0.8019 0.4004
vn 0.0000 0.6815 -0.7318
vn -0.0000 0.9776 0.2104
s 1
f 1/1/1 2/2/2 3/3/3
f 2/2/2 1/1/1 4/4/4
f 1/1/1 5/5/5 4/4/4
f 3/3/3 2/2/2 6/6/6
f 4/4/4 5/5/5 8/7/7
f 3/3/3 6/6/6 9/8/8
f 5/5/5 7/9/9 8/7/7
f 9/10/8 6/11/6 10/12/10
f 11/13/11 10/12/10 7/14/9
f 8/15/7 7/14/9 10/12/10
f 11/13/11 9/10/8 10/12/10
f 12/16/12 14/17/13 13/18/14
f 13/18/14 15/19/15 12/16/12
f 12/16/12 15/19/15 16/20/16
f 14/17/13 17/21/17 13/18/14
f 15/19/15 19/22/18 16/20/16
f 14/17/13 20/23/19 17/21/17
f 16/20/16 19/22/18 18/24/20
f 20/25/19 21/26/21 17/27/17
f 22/28/22 18/29/20 21/26/21
f 19/30/18 21/26/21 18/29/20
f 22/28/22 21/26/21 20/25/19
f 32/31/23 29/32/24 33/33/25
f 29/32/24 32/31/23 25/34/26
f 32/31/23 27/35/27 25/34/26
f 33/33/25 29/32/24 28/36/28
f 25/34/26 27/35/27 26/37/29
f 33/33/25 28/36/28 23/38/30
f 27/35/27 30/39/31 26/37/29
f 23/40/30 28/41/28 24/42/32
f 31/43/33 24/42/32 30/44/31
f 26/45/29 30/44/31 24/42/32
f 31/43/33 23/40/30 24/42/32
f 16/20/16 32/31/23 12/16/12
f 14/17/13 23/38/30 20/23/19
f 14/17/13 32/31/23 33/33/25
f 17/21/17 29/32/24 13/18/14
f 19/22/18 25/34/26 26/37/29
f 18/29/20 31/43/33 30/44/31
f 16/20/16 30/39/31 27/35/27
f 20/25/19 31/43/33 22/28/22
f 21/26/21 28/41/28 17/27/17
f 15/19/15 29/32/24 25/34/26
f 21/26/21 26/45/29 24/42/32
f 16/20/16 27/35/27 32/31/23
f 14/17/13 33/33/25 23/38/30
f 14/17/13 12/16/12 32/31/23
f 17/21/17 28/36/28 29/32/24
f 19/22/18 15/19/15 25/34/26
f 18/29/20 22/28/22 31/43/33
f 16/20/16 18/24/20 30/39/31
f 20/25/19 23/40/30 31/43/33
f 21/26/21 24/42/32 28/41/28
f 15/19/15 13/18/14 29/32/24
f 21/26/21 19/30/18 26/45/29
